<svg xmlns="http://www.w3.org/2000/svg" viewBox="0 0 512 512">
    <g>
        <path d="M105.2,315c2.6-4.7,2.6-10.4,0-15.1c9.4-11.1,14.8-23.6,17.5-37.5c0-9.7,0-18-2.7-25l118.1-9.7l-12.1-31.9l-119.5,19.4
		l-6.7-5.6c-21.5-15.3-53.7-11.1-76.5,11.1c-12.1,11.1-20.1,27.8-22.8,43c-2.9,20.7,6,41.2,22.8,52.8c16.1,11.1,38.9,11.1,59.1,1.4
		l2.7,2.8C92.2,324.9,101.2,322.3,105.2,315z M87.8,292.9c-16.1,15.3-40.3,19.4-55,8.3l-5.4-5.6c-8.1-6.9-10.7-18-9.4-29.2
		c1.3-12.5,8.1-23.6,17.5-33.3c16.1-16.7,38.9-19.4,55-8.3l5.4,4.2c8.1,8.3,10.7,19.4,9.4,30.5C103.9,272.1,97.2,283.2,87.8,292.9z"/>
        <path points="364.3,141.6 297.2,222.1 298.6,222.1 503.9,86.1 512,70.8 "/>
        <path d="M466.4,0l-18.8,11.1L238.1,198.5l12.1,30.5l-52.4,113.8l-17.5-6.9c-16.1-2.8-32.2,0-47,9.7c-26.8,15.3-40.3,45.8-32.2,72.2
		c3.4,12.1,11.1,22.5,21.5,29.2c13.4,19.4,2.7,45.8,1.3,52.8c0,6.9,12.1,15.3,14.8,11.1c1.3-2.8,6.7-48.6,28.2-55.5l22.8-8.3
		c25.5-16.7,40.3-47.2,32.2-73.6l-2.7-6.9l65.8-144.4L466.4,0z M180.4,430.4c-10.7,6.9-24.2,9.7-34.9,6.9
		c-12.1-1.4-20.1-8.3-25.5-16.7l-2.7-8.3c-5.4-18,5.4-40.3,24.2-51.4c12.1-6.9,24.2-9.7,36.2-6.9c10.7,1.4,20.1,8.3,24.2,18l4,6.9
		C211.3,397,200.6,419.3,180.4,430.4z M275.7,212.4c-3.7,3.8-9.7,3.8-13.4,0c-3.7-3.8-3.7-10,0-13.9c3.7-3.8,9.7-3.8,13.4,0
		C279.4,202.4,279.4,208.6,275.7,212.4z"/>
    </g>
</svg>
